<mxfile host="www.draw.io" modified="2019-12-03T14:20:00.512Z" agent="Mozilla/5.0 (Windows NT 10.0; Win64; x64) AppleWebKit/537.36 (KHTML, like Gecko) Chrome/78.0.3904.108 Safari/537.36" etag="POyZdBh_WBN1RbyEBZZc" version="12.3.5" type="github" pages="1">
  <diagram id="4SWU4eUbrJS28rjVWbkO" name="Page-1">
    <mxGraphModel dx="1024" dy="526" grid="1" gridSize="10" guides="1" tooltips="1" connect="1" arrows="1" fold="1" page="1" pageScale="1" pageWidth="827" pageHeight="1169" math="0" shadow="0">
      <root>
        <mxCell id="0"/>
        <mxCell id="1" parent="0"/>
        <mxCell id="aX9fKnEM7WXx84HFnky1-1" value="Kupujący" style="shape=umlActor;verticalLabelPosition=bottom;labelBackgroundColor=#ffffff;verticalAlign=top;html=1;outlineConnect=0;" vertex="1" parent="1">
          <mxGeometry x="60" y="60" width="30" height="60" as="geometry"/>
        </mxCell>
        <mxCell id="aX9fKnEM7WXx84HFnky1-9" value="" style="endArrow=none;dashed=1;html=1;" edge="1" parent="1" target="aX9fKnEM7WXx84HFnky1-1">
          <mxGeometry width="50" height="50" relative="1" as="geometry">
            <mxPoint x="75" y="750" as="sourcePoint"/>
            <mxPoint x="100" y="160" as="targetPoint"/>
          </mxGeometry>
        </mxCell>
        <mxCell id="aX9fKnEM7WXx84HFnky1-10" value="Sprzedający" style="shape=umlActor;verticalLabelPosition=bottom;labelBackgroundColor=#ffffff;verticalAlign=top;html=1;outlineConnect=0;" vertex="1" parent="1">
          <mxGeometry x="210" y="60" width="30" height="60" as="geometry"/>
        </mxCell>
        <mxCell id="aX9fKnEM7WXx84HFnky1-14" value="" style="endArrow=none;dashed=1;html=1;" edge="1" parent="1">
          <mxGeometry width="50" height="50" relative="1" as="geometry">
            <mxPoint x="224.5" y="751.5999755859375" as="sourcePoint"/>
            <mxPoint x="224.5" y="140" as="targetPoint"/>
          </mxGeometry>
        </mxCell>
        <mxCell id="aX9fKnEM7WXx84HFnky1-17" value="IOfertaAukcji" style="html=1;" vertex="1" parent="1">
          <mxGeometry x="320" y="65" width="90" height="50" as="geometry"/>
        </mxCell>
        <mxCell id="aX9fKnEM7WXx84HFnky1-18" value="ISystemSterujący" style="html=1;" vertex="1" parent="1">
          <mxGeometry x="430" y="65" width="100" height="50" as="geometry"/>
        </mxCell>
        <mxCell id="aX9fKnEM7WXx84HFnky1-20" value=":Sprzedający" style="html=1;" vertex="1" parent="1">
          <mxGeometry x="560" y="65" width="90" height="50" as="geometry"/>
        </mxCell>
        <mxCell id="aX9fKnEM7WXx84HFnky1-22" value=":Licytacja" style="html=1;" vertex="1" parent="1">
          <mxGeometry x="680" y="65" width="90" height="50" as="geometry"/>
        </mxCell>
        <mxCell id="aX9fKnEM7WXx84HFnky1-24" value=":Artykuł" style="html=1;" vertex="1" parent="1">
          <mxGeometry x="800" y="65" width="90" height="50" as="geometry"/>
        </mxCell>
        <mxCell id="aX9fKnEM7WXx84HFnky1-26" value=":Kupujący" style="html=1;" vertex="1" parent="1">
          <mxGeometry x="920" y="65" width="90" height="50" as="geometry"/>
        </mxCell>
        <mxCell id="aX9fKnEM7WXx84HFnky1-28" value="" style="endArrow=none;dashed=1;html=1;" edge="1" parent="1" source="aX9fKnEM7WXx84HFnky1-35">
          <mxGeometry width="50" height="50" relative="1" as="geometry">
            <mxPoint x="364.5" y="726.5999755859375" as="sourcePoint"/>
            <mxPoint x="364.5" y="115" as="targetPoint"/>
          </mxGeometry>
        </mxCell>
        <mxCell id="aX9fKnEM7WXx84HFnky1-29" value="" style="endArrow=none;dashed=1;html=1;" edge="1" parent="1">
          <mxGeometry width="50" height="50" relative="1" as="geometry">
            <mxPoint x="484.5" y="726.5999755859375" as="sourcePoint"/>
            <mxPoint x="484.5" y="115" as="targetPoint"/>
          </mxGeometry>
        </mxCell>
        <mxCell id="aX9fKnEM7WXx84HFnky1-30" value="" style="endArrow=none;dashed=1;html=1;" edge="1" parent="1">
          <mxGeometry width="50" height="50" relative="1" as="geometry">
            <mxPoint x="605" y="726.5999755859375" as="sourcePoint"/>
            <mxPoint x="605" y="115" as="targetPoint"/>
          </mxGeometry>
        </mxCell>
        <mxCell id="aX9fKnEM7WXx84HFnky1-31" value="" style="endArrow=none;dashed=1;html=1;" edge="1" parent="1" source="aX9fKnEM7WXx84HFnky1-48">
          <mxGeometry width="50" height="50" relative="1" as="geometry">
            <mxPoint x="724.5" y="726.5999755859375" as="sourcePoint"/>
            <mxPoint x="724.5" y="115" as="targetPoint"/>
          </mxGeometry>
        </mxCell>
        <mxCell id="aX9fKnEM7WXx84HFnky1-32" value="" style="endArrow=none;dashed=1;html=1;" edge="1" parent="1">
          <mxGeometry width="50" height="50" relative="1" as="geometry">
            <mxPoint x="844.5" y="711.5999755859375" as="sourcePoint"/>
            <mxPoint x="844.5" y="100" as="targetPoint"/>
          </mxGeometry>
        </mxCell>
        <mxCell id="aX9fKnEM7WXx84HFnky1-33" value="" style="endArrow=none;dashed=1;html=1;" edge="1" parent="1">
          <mxGeometry width="50" height="50" relative="1" as="geometry">
            <mxPoint x="964.5" y="726.5999755859375" as="sourcePoint"/>
            <mxPoint x="964.5" y="115" as="targetPoint"/>
          </mxGeometry>
        </mxCell>
        <mxCell id="aX9fKnEM7WXx84HFnky1-40" value="Rejestrowanie Artykułu na Aukcji Internetowej()" style="rounded=0;whiteSpace=wrap;html=1;fillColor=#ffffff;" vertex="1" parent="1">
          <mxGeometry x="170" y="170" width="730" height="60" as="geometry"/>
        </mxCell>
        <mxCell id="aX9fKnEM7WXx84HFnky1-51" value="" style="rounded=0;orthogonalLoop=1;jettySize=auto;html=1;entryX=-0.04;entryY=-0.008;entryDx=0;entryDy=0;entryPerimeter=0;exitX=1;exitY=0.992;exitDx=0;exitDy=0;exitPerimeter=0;" edge="1" parent="1" source="aX9fKnEM7WXx84HFnky1-35" target="aX9fKnEM7WXx84HFnky1-48">
          <mxGeometry relative="1" as="geometry">
            <mxPoint x="380" y="320" as="sourcePoint"/>
            <mxPoint x="450" y="295" as="targetPoint"/>
          </mxGeometry>
        </mxCell>
        <mxCell id="aX9fKnEM7WXx84HFnky1-35" value="" style="html=1;points=[];perimeter=orthogonalPerimeter;fillColor=#ffffff;" vertex="1" parent="1">
          <mxGeometry x="360" y="270" width="10" height="50" as="geometry"/>
        </mxCell>
        <mxCell id="aX9fKnEM7WXx84HFnky1-41" value="" style="endArrow=none;dashed=1;html=1;" edge="1" parent="1" target="aX9fKnEM7WXx84HFnky1-35">
          <mxGeometry width="50" height="50" relative="1" as="geometry">
            <mxPoint x="364.5" y="726.5999755859375" as="sourcePoint"/>
            <mxPoint x="364.5" y="115" as="targetPoint"/>
          </mxGeometry>
        </mxCell>
        <mxCell id="aX9fKnEM7WXx84HFnky1-42" value="" style="endArrow=classic;html=1;entryX=0.12;entryY=0.368;entryDx=0;entryDy=0;entryPerimeter=0;" edge="1" parent="1" target="aX9fKnEM7WXx84HFnky1-35">
          <mxGeometry width="50" height="50" relative="1" as="geometry">
            <mxPoint x="75" y="290" as="sourcePoint"/>
            <mxPoint x="155" y="290" as="targetPoint"/>
          </mxGeometry>
        </mxCell>
        <mxCell id="aX9fKnEM7WXx84HFnky1-45" value="wyszukajLicytacje(artykul)" style="text;html=1;align=center;verticalAlign=middle;resizable=0;points=[];;autosize=1;" vertex="1" parent="1">
          <mxGeometry x="130" y="270" width="150" height="20" as="geometry"/>
        </mxCell>
        <mxCell id="aX9fKnEM7WXx84HFnky1-48" value="" style="html=1;points=[];perimeter=orthogonalPerimeter;fillColor=#ffffff;" vertex="1" parent="1">
          <mxGeometry x="720" y="320" width="10" height="110" as="geometry"/>
        </mxCell>
        <mxCell id="aX9fKnEM7WXx84HFnky1-49" value="" style="endArrow=none;dashed=1;html=1;" edge="1" parent="1" target="aX9fKnEM7WXx84HFnky1-48">
          <mxGeometry width="50" height="50" relative="1" as="geometry">
            <mxPoint x="724.5" y="726.5999755859375" as="sourcePoint"/>
            <mxPoint x="724.5" y="115" as="targetPoint"/>
          </mxGeometry>
        </mxCell>
        <mxCell id="aX9fKnEM7WXx84HFnky1-52" value="licytacja:=wybierzLicytacje(artykul)" style="text;html=1;align=center;verticalAlign=middle;resizable=0;points=[];;autosize=1;" vertex="1" parent="1">
          <mxGeometry x="440" y="300" width="200" height="20" as="geometry"/>
        </mxCell>
        <mxCell id="aX9fKnEM7WXx84HFnky1-53" value="loop" style="shape=umlFrame;whiteSpace=wrap;html=1;fillColor=#ffffff;width=50;height=15;" vertex="1" parent="1">
          <mxGeometry x="180" y="245" width="580" height="115" as="geometry"/>
        </mxCell>
        <mxCell id="aX9fKnEM7WXx84HFnky1-54" value="[1...*]" style="text;html=1;align=center;verticalAlign=middle;resizable=0;points=[];;autosize=1;" vertex="1" parent="1">
          <mxGeometry x="225" y="245" width="40" height="20" as="geometry"/>
        </mxCell>
        <mxCell id="aX9fKnEM7WXx84HFnky1-55" value="ref" style="text;html=1;align=center;verticalAlign=middle;resizable=0;points=[];;autosize=1;" vertex="1" parent="1">
          <mxGeometry x="170" y="170" width="30" height="20" as="geometry"/>
        </mxCell>
        <mxCell id="aX9fKnEM7WXx84HFnky1-56" value="ILicytacja" style="html=1;" vertex="1" parent="1">
          <mxGeometry x="130" y="390" width="65" height="50" as="geometry"/>
        </mxCell>
        <mxCell id="aX9fKnEM7WXx84HFnky1-60" value="" style="endArrow=classic;html=1;entryX=1;entryY=0.5;entryDx=0;entryDy=0;exitX=-0.04;exitY=0.891;exitDx=0;exitDy=0;exitPerimeter=0;" edge="1" parent="1" source="aX9fKnEM7WXx84HFnky1-48" target="aX9fKnEM7WXx84HFnky1-56">
          <mxGeometry width="50" height="50" relative="1" as="geometry">
            <mxPoint x="390" y="460" as="sourcePoint"/>
            <mxPoint x="440" y="410" as="targetPoint"/>
          </mxGeometry>
        </mxCell>
        <mxCell id="aX9fKnEM7WXx84HFnky1-61" value="&amp;lt;&amp;lt;create&amp;gt;&amp;gt;" style="text;html=1;align=center;verticalAlign=middle;resizable=0;points=[];;autosize=1;" vertex="1" parent="1">
          <mxGeometry x="380" y="395" width="80" height="20" as="geometry"/>
        </mxCell>
        <mxCell id="aX9fKnEM7WXx84HFnky1-63" value="wyświetl" style="text;html=1;align=center;verticalAlign=middle;resizable=0;points=[];;autosize=1;" vertex="1" parent="1">
          <mxGeometry x="390" y="420" width="60" height="20" as="geometry"/>
        </mxCell>
        <mxCell id="aX9fKnEM7WXx84HFnky1-69" value="" style="endArrow=none;dashed=1;html=1;" edge="1" parent="1" source="aX9fKnEM7WXx84HFnky1-74" target="aX9fKnEM7WXx84HFnky1-56">
          <mxGeometry width="50" height="50" relative="1" as="geometry">
            <mxPoint x="161" y="1052" as="sourcePoint"/>
            <mxPoint x="137" y="440" as="targetPoint"/>
          </mxGeometry>
        </mxCell>
        <mxCell id="aX9fKnEM7WXx84HFnky1-70" value="" style="endArrow=classic;html=1;" edge="1" parent="1">
          <mxGeometry width="50" height="50" relative="1" as="geometry">
            <mxPoint x="80" y="600" as="sourcePoint"/>
            <mxPoint x="150" y="600" as="targetPoint"/>
          </mxGeometry>
        </mxCell>
        <mxCell id="aX9fKnEM7WXx84HFnky1-71" value="licytuj(kwota)" style="text;html=1;align=center;verticalAlign=middle;resizable=0;points=[];;autosize=1;" vertex="1" parent="1">
          <mxGeometry x="72.5" y="574" width="90" height="20" as="geometry"/>
        </mxCell>
        <mxCell id="aX9fKnEM7WXx84HFnky1-74" value="" style="html=1;points=[];perimeter=orthogonalPerimeter;fillColor=#ffffff;" vertex="1" parent="1">
          <mxGeometry x="155" y="594" width="15" height="110" as="geometry"/>
        </mxCell>
        <mxCell id="aX9fKnEM7WXx84HFnky1-75" value="" style="endArrow=none;dashed=1;html=1;" edge="1" parent="1" source="aX9fKnEM7WXx84HFnky1-84" target="aX9fKnEM7WXx84HFnky1-74">
          <mxGeometry width="50" height="50" relative="1" as="geometry">
            <mxPoint x="161" y="750" as="sourcePoint"/>
            <mxPoint x="162.44113029827326" y="440" as="targetPoint"/>
          </mxGeometry>
        </mxCell>
        <mxCell id="aX9fKnEM7WXx84HFnky1-76" value="" style="endArrow=classic;html=1;" edge="1" parent="1">
          <mxGeometry width="50" height="50" relative="1" as="geometry">
            <mxPoint x="80" y="740" as="sourcePoint"/>
            <mxPoint x="160" y="740" as="targetPoint"/>
          </mxGeometry>
        </mxCell>
        <mxCell id="aX9fKnEM7WXx84HFnky1-77" value="&amp;lt;&amp;lt;destroy&amp;gt;&amp;gt;" style="text;html=1;align=center;verticalAlign=middle;resizable=0;points=[];;autosize=1;" vertex="1" parent="1">
          <mxGeometry x="77.5" y="720" width="80" height="20" as="geometry"/>
        </mxCell>
        <mxCell id="aX9fKnEM7WXx84HFnky1-78" value="usuń" style="text;html=1;align=center;verticalAlign=middle;resizable=0;points=[];;autosize=1;" vertex="1" parent="1">
          <mxGeometry x="97.5" y="740" width="40" height="20" as="geometry"/>
        </mxCell>
        <mxCell id="aX9fKnEM7WXx84HFnky1-80" value="Licytowanie()" style="rounded=0;whiteSpace=wrap;html=1;fillColor=#ffffff;" vertex="1" parent="1">
          <mxGeometry x="570" y="629" width="415" height="40" as="geometry"/>
        </mxCell>
        <mxCell id="aX9fKnEM7WXx84HFnky1-81" value="" style="endArrow=classic;html=1;entryX=0;entryY=0.5;entryDx=0;entryDy=0;exitX=1.213;exitY=0.487;exitDx=0;exitDy=0;exitPerimeter=0;" edge="1" parent="1" source="aX9fKnEM7WXx84HFnky1-74" target="aX9fKnEM7WXx84HFnky1-80">
          <mxGeometry width="50" height="50" relative="1" as="geometry">
            <mxPoint x="255" y="694" as="sourcePoint"/>
            <mxPoint x="305" y="644" as="targetPoint"/>
          </mxGeometry>
        </mxCell>
        <mxCell id="aX9fKnEM7WXx84HFnky1-82" value="status:= zatwierdzSume(kwota)" style="text;html=1;align=center;verticalAlign=middle;resizable=0;points=[];;autosize=1;" vertex="1" parent="1">
          <mxGeometry x="240" y="629" width="180" height="20" as="geometry"/>
        </mxCell>
        <mxCell id="aX9fKnEM7WXx84HFnky1-84" value="" style="shape=image;html=1;verticalAlign=top;verticalLabelPosition=bottom;labelBackgroundColor=#ffffff;imageAspect=0;aspect=fixed;image=https://cdn4.iconfinder.com/data/icons/feather/24/x-128.png;fillColor=#ffffff;" vertex="1" parent="1">
          <mxGeometry x="147.5" y="725" width="30" height="30" as="geometry"/>
        </mxCell>
        <mxCell id="aX9fKnEM7WXx84HFnky1-85" value="" style="endArrow=none;dashed=1;html=1;" edge="1" parent="1" target="aX9fKnEM7WXx84HFnky1-84">
          <mxGeometry width="50" height="50" relative="1" as="geometry">
            <mxPoint x="161" y="750" as="sourcePoint"/>
            <mxPoint x="161" y="704" as="targetPoint"/>
          </mxGeometry>
        </mxCell>
        <mxCell id="aX9fKnEM7WXx84HFnky1-86" value="loop" style="shape=umlFrame;whiteSpace=wrap;html=1;fillColor=#ffffff;width=52;height=20;" vertex="1" parent="1">
          <mxGeometry x="38" y="540" width="962" height="150" as="geometry"/>
        </mxCell>
        <mxCell id="aX9fKnEM7WXx84HFnky1-87" value="ref" style="text;html=1;align=center;verticalAlign=middle;resizable=0;points=[];;autosize=1;" vertex="1" parent="1">
          <mxGeometry x="575" y="629" width="30" height="20" as="geometry"/>
        </mxCell>
        <mxCell id="aX9fKnEM7WXx84HFnky1-88" value="opt" style="shape=umlFrame;whiteSpace=wrap;html=1;fillColor=#ffffff;width=63;height=15;" vertex="1" parent="1">
          <mxGeometry x="28" y="515" width="1003" height="185" as="geometry"/>
        </mxCell>
        <mxCell id="aX9fKnEM7WXx84HFnky1-89" value="Sprzedający" style="shape=umlActor;verticalLabelPosition=bottom;labelBackgroundColor=#ffffff;verticalAlign=top;html=1;fillColor=#ffffff;" vertex="1" parent="1">
          <mxGeometry x="102.5" y="920" width="30" height="60" as="geometry"/>
        </mxCell>
        <mxCell id="aX9fKnEM7WXx84HFnky1-97" value="" style="html=1;points=[];perimeter=orthogonalPerimeter;fillColor=#ffffff;" vertex="1" parent="1">
          <mxGeometry x="113" y="1010" width="10" height="360" as="geometry"/>
        </mxCell>
        <mxCell id="aX9fKnEM7WXx84HFnky1-98" value="System" style="html=1;" vertex="1" parent="1">
          <mxGeometry x="375" y="940" width="90" height="50" as="geometry"/>
        </mxCell>
        <mxCell id="aX9fKnEM7WXx84HFnky1-99" value="SerwerPoczty" style="html=1;" vertex="1" parent="1">
          <mxGeometry x="707.5" y="940" width="90" height="50" as="geometry"/>
        </mxCell>
        <mxCell id="aX9fKnEM7WXx84HFnky1-100" value="" style="endArrow=none;dashed=1;html=1;entryX=0.5;entryY=1;entryDx=0;entryDy=0;" edge="1" parent="1" target="aX9fKnEM7WXx84HFnky1-98">
          <mxGeometry width="50" height="50" relative="1" as="geometry">
            <mxPoint x="420" y="1490" as="sourcePoint"/>
            <mxPoint x="305" y="1110" as="targetPoint"/>
          </mxGeometry>
        </mxCell>
        <mxCell id="aX9fKnEM7WXx84HFnky1-101" value="" style="endArrow=classic;html=1;" edge="1" parent="1">
          <mxGeometry width="50" height="50" relative="1" as="geometry">
            <mxPoint x="130" y="1050" as="sourcePoint"/>
            <mxPoint x="410" y="1050" as="targetPoint"/>
          </mxGeometry>
        </mxCell>
        <mxCell id="aX9fKnEM7WXx84HFnky1-102" value="1: rozpoczęcie procesu rejestracji konta" style="text;html=1;align=center;verticalAlign=middle;resizable=0;points=[];;autosize=1;" vertex="1" parent="1">
          <mxGeometry x="147.5" y="1030" width="230" height="20" as="geometry"/>
        </mxCell>
        <mxCell id="aX9fKnEM7WXx84HFnky1-103" value="" style="endArrow=classic;html=1;entryX=-0.009;entryY=0.96;entryDx=0;entryDy=0;entryPerimeter=0;" edge="1" parent="1" target="aX9fKnEM7WXx84HFnky1-105">
          <mxGeometry width="50" height="50" relative="1" as="geometry">
            <mxPoint x="410" y="1088" as="sourcePoint"/>
            <mxPoint x="80" y="1360" as="targetPoint"/>
          </mxGeometry>
        </mxCell>
        <mxCell id="aX9fKnEM7WXx84HFnky1-105" value="1.1: wyswietlenie formularza danych użytkownika" style="text;html=1;align=center;verticalAlign=middle;resizable=0;points=[];;autosize=1;" vertex="1" parent="1">
          <mxGeometry x="132.5" y="1070" width="280" height="20" as="geometry"/>
        </mxCell>
        <mxCell id="aX9fKnEM7WXx84HFnky1-107" value="" style="endArrow=classic;html=1;" edge="1" parent="1">
          <mxGeometry width="50" height="50" relative="1" as="geometry">
            <mxPoint x="130" y="1130" as="sourcePoint"/>
            <mxPoint x="410" y="1130" as="targetPoint"/>
          </mxGeometry>
        </mxCell>
        <mxCell id="aX9fKnEM7WXx84HFnky1-108" value="2. wypełnienie pól formularza i potwierdzenie" style="text;html=1;align=center;verticalAlign=middle;resizable=0;points=[];;autosize=1;" vertex="1" parent="1">
          <mxGeometry x="147.5" y="1110" width="250" height="20" as="geometry"/>
        </mxCell>
        <mxCell id="aX9fKnEM7WXx84HFnky1-109" value="" style="endArrow=classic;html=1;" edge="1" parent="1">
          <mxGeometry width="50" height="50" relative="1" as="geometry">
            <mxPoint x="410" y="1230" as="sourcePoint"/>
            <mxPoint x="130" y="1230" as="targetPoint"/>
          </mxGeometry>
        </mxCell>
        <mxCell id="aX9fKnEM7WXx84HFnky1-110" value="2.1. wyświetla formularz danych użytkownika&amp;nbsp;&lt;br&gt;i prezentuje komunikat (lub idź do punkt 2.)" style="text;html=1;align=center;verticalAlign=middle;resizable=0;points=[];;autosize=1;" vertex="1" parent="1">
          <mxGeometry x="142.5" y="1200" width="260" height="30" as="geometry"/>
        </mxCell>
        <mxCell id="aX9fKnEM7WXx84HFnky1-112" value="[dane są niepoprawne]" style="text;html=1;align=center;verticalAlign=middle;resizable=0;points=[];;autosize=1;" vertex="1" parent="1">
          <mxGeometry x="125" y="1169" width="140" height="20" as="geometry"/>
        </mxCell>
        <mxCell id="aX9fKnEM7WXx84HFnky1-114" value="2.2: potwierdzenie przyjecia danych" style="text;html=1;align=center;verticalAlign=middle;resizable=0;points=[];;autosize=1;" vertex="1" parent="1">
          <mxGeometry x="167.5" y="1300" width="210" height="20" as="geometry"/>
        </mxCell>
        <mxCell id="aX9fKnEM7WXx84HFnky1-115" value="" style="endArrow=classic;html=1;" edge="1" parent="1">
          <mxGeometry width="50" height="50" relative="1" as="geometry">
            <mxPoint x="410" y="1320" as="sourcePoint"/>
            <mxPoint x="130" y="1320" as="targetPoint"/>
          </mxGeometry>
        </mxCell>
        <mxCell id="aX9fKnEM7WXx84HFnky1-116" value="" style="html=1;points=[];perimeter=orthogonalPerimeter;fillColor=#ffffff;" vertex="1" parent="1">
          <mxGeometry x="415" y="1009" width="10" height="481" as="geometry"/>
        </mxCell>
        <mxCell id="aX9fKnEM7WXx84HFnky1-113" value="alt" style="shape=umlFrame;whiteSpace=wrap;html=1;fillColor=#ffffff;width=40;height=20;" vertex="1" parent="1">
          <mxGeometry x="70" y="1160" width="400" height="100" as="geometry"/>
        </mxCell>
        <mxCell id="aX9fKnEM7WXx84HFnky1-117" value="" style="endArrow=none;dashed=1;html=1;entryX=0.5;entryY=1;entryDx=0;entryDy=0;" edge="1" parent="1" source="aX9fKnEM7WXx84HFnky1-122" target="aX9fKnEM7WXx84HFnky1-99">
          <mxGeometry width="50" height="50" relative="1" as="geometry">
            <mxPoint x="753" y="1390" as="sourcePoint"/>
            <mxPoint x="730" y="1100" as="targetPoint"/>
          </mxGeometry>
        </mxCell>
        <mxCell id="aX9fKnEM7WXx84HFnky1-118" value="" style="endArrow=classic;html=1;" edge="1" parent="1">
          <mxGeometry width="50" height="50" relative="1" as="geometry">
            <mxPoint x="428" y="1310" as="sourcePoint"/>
            <mxPoint x="740" y="1310" as="targetPoint"/>
          </mxGeometry>
        </mxCell>
        <mxCell id="aX9fKnEM7WXx84HFnky1-119" value="2.3: wyslanie emaila z kodem potwierdzajacym&lt;br&gt;założenie konta" style="text;html=1;align=center;verticalAlign=middle;resizable=0;points=[];;autosize=1;" vertex="1" parent="1">
          <mxGeometry x="450" y="1280" width="270" height="30" as="geometry"/>
        </mxCell>
        <mxCell id="aX9fKnEM7WXx84HFnky1-120" value="" style="endArrow=classic;html=1;dashed=1;" edge="1" parent="1">
          <mxGeometry width="50" height="50" relative="1" as="geometry">
            <mxPoint x="740" y="1356" as="sourcePoint"/>
            <mxPoint x="429" y="1356" as="targetPoint"/>
          </mxGeometry>
        </mxCell>
        <mxCell id="aX9fKnEM7WXx84HFnky1-121" value="2.3.2: potwierdzenie" style="text;html=1;align=center;verticalAlign=middle;resizable=0;points=[];;autosize=1;" vertex="1" parent="1">
          <mxGeometry x="500" y="1330" width="120" height="20" as="geometry"/>
        </mxCell>
        <mxCell id="aX9fKnEM7WXx84HFnky1-122" value="" style="html=1;points=[];perimeter=orthogonalPerimeter;fillColor=#ffffff;" vertex="1" parent="1">
          <mxGeometry x="748" y="1180" width="10" height="200" as="geometry"/>
        </mxCell>
        <mxCell id="aX9fKnEM7WXx84HFnky1-123" value="" style="endArrow=none;dashed=1;html=1;entryX=0.5;entryY=1;entryDx=0;entryDy=0;" edge="1" parent="1" target="aX9fKnEM7WXx84HFnky1-122">
          <mxGeometry width="50" height="50" relative="1" as="geometry">
            <mxPoint x="753" y="1390" as="sourcePoint"/>
            <mxPoint x="752.5" y="990" as="targetPoint"/>
          </mxGeometry>
        </mxCell>
        <mxCell id="aX9fKnEM7WXx84HFnky1-124" value="" style="endArrow=classic;html=1;exitX=1.08;exitY=0.734;exitDx=0;exitDy=0;exitPerimeter=0;" edge="1" parent="1" source="aX9fKnEM7WXx84HFnky1-122">
          <mxGeometry width="50" height="50" relative="1" as="geometry">
            <mxPoint x="795" y="1325" as="sourcePoint"/>
            <mxPoint x="759" y="1350" as="targetPoint"/>
            <Array as="points">
              <mxPoint x="820" y="1327"/>
              <mxPoint x="820" y="1350"/>
            </Array>
          </mxGeometry>
        </mxCell>
        <mxCell id="aX9fKnEM7WXx84HFnky1-125" value="2.3.1: wysłanie emaila" style="text;html=1;align=center;verticalAlign=middle;resizable=0;points=[];;autosize=1;" vertex="1" parent="1">
          <mxGeometry x="770" y="1300" width="130" height="20" as="geometry"/>
        </mxCell>
        <mxCell id="aX9fKnEM7WXx84HFnky1-66" value="Login()" style="rounded=0;whiteSpace=wrap;html=1;fillColor=#ffffff;" vertex="1" parent="1">
          <mxGeometry x="50" y="470" width="230" height="40" as="geometry"/>
        </mxCell>
        <mxCell id="aX9fKnEM7WXx84HFnky1-67" value="ref" style="text;html=1;align=center;verticalAlign=middle;resizable=0;points=[];;autosize=1;" vertex="1" parent="1">
          <mxGeometry x="47.5" y="470" width="30" height="20" as="geometry"/>
        </mxCell>
        <mxCell id="aX9fKnEM7WXx84HFnky1-128" value="" style="endArrow=classic;html=1;entryX=1.58;entryY=0.95;entryDx=0;entryDy=0;entryPerimeter=0;" edge="1" parent="1" target="aX9fKnEM7WXx84HFnky1-116">
          <mxGeometry width="50" height="50" relative="1" as="geometry">
            <mxPoint x="430" y="1420" as="sourcePoint"/>
            <mxPoint x="600" y="1420" as="targetPoint"/>
            <Array as="points">
              <mxPoint x="490" y="1420"/>
              <mxPoint x="490" y="1466"/>
            </Array>
          </mxGeometry>
        </mxCell>
        <mxCell id="aX9fKnEM7WXx84HFnky1-129" value="2.3.3 Utwórz konto sprzedającego" style="text;html=1;align=center;verticalAlign=middle;resizable=0;points=[];;autosize=1;" vertex="1" parent="1">
          <mxGeometry x="425" y="1400" width="200" height="20" as="geometry"/>
        </mxCell>
        <mxCell id="aX9fKnEM7WXx84HFnky1-130" value="alt" style="shape=umlFrame;whiteSpace=wrap;html=1;fillColor=#ffffff;width=40;height=20;" vertex="1" parent="1">
          <mxGeometry x="365" y="1370" width="330" height="110" as="geometry"/>
        </mxCell>
        <mxCell id="aX9fKnEM7WXx84HFnky1-131" value="[dane są poprawne]" style="text;html=1;align=center;verticalAlign=middle;resizable=0;points=[];;autosize=1;" vertex="1" parent="1">
          <mxGeometry x="425" y="1370" width="120" height="20" as="geometry"/>
        </mxCell>
        <mxCell id="aX9fKnEM7WXx84HFnky1-132" value="" style="rounded=0;whiteSpace=wrap;html=1;fillColor=#ffffff;" vertex="1" parent="1">
          <mxGeometry x="475" y="584" width="20" height="27" as="geometry"/>
        </mxCell>
        <mxCell id="aX9fKnEM7WXx84HFnky1-134" value="" style="endArrow=classic;html=1;" edge="1" parent="1">
          <mxGeometry width="50" height="50" relative="1" as="geometry">
            <mxPoint x="175" y="597" as="sourcePoint"/>
            <mxPoint x="465" y="597" as="targetPoint"/>
          </mxGeometry>
        </mxCell>
        <mxCell id="aX9fKnEM7WXx84HFnky1-136" value="wyslijEmail(status)" style="text;html=1;align=center;verticalAlign=middle;resizable=0;points=[];;autosize=1;" vertex="1" parent="1">
          <mxGeometry x="250" y="574" width="110" height="20" as="geometry"/>
        </mxCell>
      </root>
    </mxGraphModel>
  </diagram>
</mxfile>
